<?xml version="1.0" standalone="no"?>
<!DOCTYPE svg PUBLIC "-//W3C//DTD SVG 20010904//EN"
 "http://www.w3.org/TR/2001/REC-SVG-20010904/DTD/svg10.dtd">
<svg version="1.0" xmlns="http://www.w3.org/2000/svg"
 width="700.000000pt" height="700.000000pt" viewBox="0 0 700.000000 700.000000"
 preserveAspectRatio="xMidYMid meet">
<metadata>
Created by potrace 1.14, written by Peter Selinger 2001-2017
</metadata>
<g transform="translate(0.000000,700.000000) scale(0.100000,-0.100000)"
fill="#000000" stroke="none">
<path d="M3299 6996 c-2 -2 -40 -6 -84 -10 -129 -11 -344 -41 -405 -56 -19 -5
-51 -12 -70 -15 -19 -3 -89 -21 -155 -40 -345 -97 -607 -210 -894 -384 -110
-67 -330 -218 -351 -241 -3 -3 -45 -39 -95 -80 -276 -229 -546 -547 -737 -869
-119 -200 -221 -407 -271 -551 -9 -25 -25 -70 -37 -100 -54 -141 -139 -485
-155 -625 -3 -27 -10 -84 -15 -125 -5 -41 -13 -109 -17 -150 -9 -92 -9 -431 0
-520 11 -104 37 -289 52 -365 8 -38 17 -86 20 -105 13 -80 78 -309 121 -426
101 -280 253 -582 402 -799 183 -266 449 -555 682 -740 41 -33 84 -68 94 -77
85 -77 409 -275 607 -371 180 -87 505 -206 635 -231 10 -2 57 -13 104 -24 79
-19 103 -25 170 -37 14 -3 36 -7 50 -10 14 -2 43 -7 65 -9 22 -3 60 -8 85 -11
125 -18 246 -23 450 -19 124 2 241 6 260 9 19 3 87 12 150 20 1074 145 2000
762 2555 1700 112 189 235 462 305 675 27 80 84 295 94 350 2 14 7 36 10 50 3
14 8 36 10 50 2 14 7 36 10 50 6 27 15 83 22 145 3 22 7 51 9 65 26 142 26
595 1 750 -2 14 -7 46 -10 71 -4 25 -9 59 -12 75 -2 16 -9 56 -15 89 -63 381
-186 724 -400 1116 -238 437 -628 864 -1059 1161 -181 125 -427 261 -600 332
-25 10 -58 24 -75 31 -103 46 -474 159 -590 180 -140 25 -259 45 -305 50 -30
4 -68 8 -85 11 -37 5 -521 15 -526 10z m32 -150 c4 -48 7 -320 3 -330 -3 -8
-33 -16 -82 -20 -100 -9 -160 -15 -197 -21 -16 -2 -55 -7 -85 -11 -30 -3 -59
-10 -63 -14 -5 -4 -7 -112 -5 -240 4 -288 -6 -273 161 -263 62 3 132 6 157 7
l45 1 0 -168 c0 -103 -4 -171 -10 -175 -14 -9 -31 -12 -120 -17 -139 -9 -191
-14 -206 -20 -12 -5 -14 -30 -13 -143 1 -75 3 -216 4 -312 l2 -175 219 0 c121
0 219 0 220 0 1 0 3 -80 6 -177 4 -167 3 -178 -14 -178 -22 -1 -695 -1 -705 0
-3 0 -7 55 -7 123 -1 67 -4 219 -6 337 -13 568 -15 700 -21 1176 l-7 511 79
21 c69 19 103 27 209 47 37 8 160 27 195 31 19 2 64 7 100 12 93 11 140 10
141 -2z m589 -12 c105 -15 133 -19 180 -29 14 -3 41 -8 60 -11 34 -6 115 -25
193 -45 l39 -10 -4 -162 -3 -162 -40 1 c-22 0 -107 12 -188 27 -81 15 -161 27
-177 27 l-30 0 -1 -122 c-1 -68 -1 -126 -1 -129 1 -4 2 -60 3 -126 0 -66 4
-125 8 -132 10 -15 34 -20 271 -47 30 -3 58 -8 61 -10 4 -2 6 -80 6 -174 l0
-171 -80 6 c-44 4 -90 9 -101 11 -12 2 -53 7 -92 10 l-71 6 -7 -48 c-4 -27 -9
-175 -12 -329 l-5 -280 138 0 c140 0 290 -9 300 -18 7 -7 9 -307 2 -319 -5 -8
-286 -12 -670 -8 l-55 0 2 633 c1 505 8 1139 17 1590 l1 49 76 -7 c41 -3 122
-13 180 -21z m-1560 -197 c0 -22 -40 -133 -189 -530 l-141 -375 56 -148 c91
-243 161 -436 239 -659 111 -320 110 -316 94 -326 -8 -5 -78 -8 -156 -8 l-142
2 -14 46 c-8 25 -47 145 -85 266 -39 121 -89 280 -112 353 -23 72 -45 132 -49
132 -14 0 -42 -90 -47 -151 -3 -35 -6 -196 -7 -358 l-2 -294 -107 1 c-60 0
-121 1 -136 1 l-28 1 0 798 c1 646 4 802 14 815 17 21 206 147 219 147 18 0
21 -20 23 -150 3 -206 7 -384 9 -395 6 -45 62 104 222 592 l44 132 140 60 c77
34 143 61 148 61 4 0 7 -6 7 -13z m2529 -92 c84 -41 182 -94 219 -118 185
-120 317 -326 347 -543 12 -85 13 -202 4 -277 -31 -250 -146 -325 -420 -273
-39 7 -72 9 -75 4 -8 -13 -12 -71 -19 -293 -12 -385 -14 -448 -17 -451 -3 -3
-172 -6 -249 -5 -35 1 -36 2 -33 39 1 20 5 150 9 287 3 138 8 311 10 385 4
128 14 548 20 840 2 74 4 203 5 285 2 170 5 195 29 195 9 0 86 -34 170 -75z
m-2297 -2021 c49 -25 91 -75 137 -163 l41 -79 0 -781 0 -781 -32 -68 c-43 -89
-129 -176 -189 -192 -65 -18 -159 -7 -213 24 -80 47 -138 141 -158 259 -12 67
-17 1356 -6 1484 10 124 86 252 176 297 71 36 173 36 244 0z m2924 -9 c91 -53
149 -161 161 -297 10 -111 10 -1368 0 -1438 -11 -79 -11 -80 -31 -139 -21 -60
-86 -134 -146 -165 -53 -28 -169 -30 -228 -5 -78 33 -151 118 -166 194 -4 17
-9 41 -13 55 -10 41 -13 1468 -2 1539 11 74 43 151 83 199 83 97 231 122 342
57z m-4660 7 c6 -1 16 -14 22 -29 15 -39 19 -65 37 -223 3 -30 8 -71 10 -90 9
-75 36 -318 41 -370 3 -30 7 -66 9 -80 2 -14 7 -54 10 -90 4 -36 8 -76 10 -90
2 -14 13 -110 25 -215 19 -180 26 -240 35 -310 7 -65 15 -132 19 -175 3 -25 8
-72 11 -105 3 -33 8 -73 10 -90 15 -120 16 -163 4 -171 -7 -4 -54 -8 -105 -9
l-93 -2 -5 36 c-4 20 -8 61 -11 91 -23 244 -27 270 -42 285 -19 20 -203 22
-204 3 0 -7 -2 -22 -4 -33 -2 -11 -11 -94 -20 -185 -11 -108 -21 -170 -30
-179 -10 -10 -39 -15 -95 -15 -88 -1 -103 8 -95 54 2 14 6 54 10 90 3 36 8 81
10 100 3 19 7 67 11 105 3 39 7 72 9 75 2 3 6 43 10 90 3 47 8 92 10 100 2 8
7 49 10 90 3 41 8 82 10 90 2 8 7 47 10 85 3 39 7 81 10 95 2 14 7 54 10 90 4
36 8 76 10 90 2 14 6 52 10 85 3 33 10 94 15 135 5 41 12 100 15 130 3 30 8
66 10 80 2 14 7 54 10 90 3 36 7 74 9 85 2 11 7 54 12 95 4 41 9 78 10 83 1 4
2 23 3 42 2 60 22 71 136 69 55 0 105 -1 111 -2z m819 -7 c79 -15 139 -68 180
-160 42 -93 54 -169 54 -340 1 -186 -14 -275 -61 -372 l-31 -63 42 -82 c61
-122 74 -197 75 -423 1 -104 -2 -208 -6 -230 -15 -80 -19 -97 -34 -143 -30
-90 -87 -167 -145 -197 -38 -20 -77 -24 -288 -29 l-171 -4 0 1027 0 1028 173
-2 c94 -1 190 -5 212 -10z m1721 1 c89 -17 133 -54 185 -157 52 -105 62 -170
63 -414 1 -307 -11 -386 -80 -514 -40 -72 -41 -44 12 -321 19 -102 37 -196 39
-210 2 -14 9 -50 15 -80 6 -30 13 -68 16 -85 2 -16 13 -77 24 -135 11 -63 15
-109 9 -114 -5 -5 -52 -10 -105 -10 -110 -1 -117 4 -129 82 -3 26 -8 56 -10
67 -2 11 -6 38 -10 61 -6 41 -10 64 -20 119 -9 54 -47 280 -49 300 -7 57 -30
171 -35 177 -3 4 -21 9 -38 13 l-33 5 -2 -412 -3 -413 -110 0 -110 0 -2 1020
c-1 680 2 1022 9 1026 12 8 321 4 364 -5z m1039 -144 c0 -85 -4 -156 -8 -159
-5 -3 -49 -7 -99 -9 -51 -2 -93 -6 -95 -7 -2 -2 -5 -388 -8 -857 -2 -469 -7
-856 -11 -859 -3 -3 -50 -6 -105 -6 l-99 -1 0 867 0 867 -82 2 c-46 1 -91 2
-100 2 -24 -1 -26 15 -24 168 l1 135 110 5 c61 3 202 5 315 5 l204 0 1 -153z
m391 -864 c-3 -561 -6 -1022 -8 -1023 -2 -2 -50 -5 -108 -7 l-105 -3 -3 1025
-2 1026 115 1 115 1 -4 -1020z m1303 1007 c8 -8 69 -239 87 -330 2 -11 29
-130 59 -265 31 -135 58 -253 60 -263 2 -10 6 -26 9 -35 3 -9 8 -30 11 -47 3
-16 14 -66 24 -110 24 -100 21 -164 32 752 l4 303 45 1 c25 0 71 2 103 4 l58
2 -4 -1019 c-2 -560 -6 -1020 -8 -1022 -4 -4 -125 -9 -164 -7 -18 1 -24 15
-44 104 -12 56 -41 176 -63 267 -22 91 -41 172 -43 180 -2 8 -13 56 -25 105
-12 50 -23 99 -26 109 -23 113 -88 355 -93 351 -10 -6 -13 -158 -15 -690 l-1
-430 -98 0 c-59 0 -97 4 -98 10 -1 13 -1 2016 0 2031 1 14 176 13 190 -1z
m-2556 -2125 c138 -52 210 -186 223 -417 10 -182 10 -234 -1 -243 -7 -6 -225
-20 -236 -15 0 0 -3 36 -5 80 -3 44 -9 112 -16 150 -9 59 -16 75 -44 101 -51
48 -118 33 -151 -35 -16 -33 -18 -89 -20 -691 -1 -360 1 -675 6 -700 12 -57
48 -90 100 -90 67 0 105 44 117 133 6 53 9 325 4 331 -4 3 -70 13 -102 15 -7
1 -12 330 -5 332 1 0 84 3 185 6 146 4 182 2 182 -9 4 -145 -7 -700 -15 -773
-23 -201 -135 -344 -291 -372 -184 -32 -314 42 -406 234 l-40 82 -1 638 c-2
576 4 866 18 904 2 8 7 27 9 42 16 93 88 226 142 264 58 40 101 50 211 52 60
1 97 -4 136 -19z m-2022 -13 c1 -43 -2 -257 -7 -587 -3 -184 -7 -427 -7 -539
l-2 -204 30 -16 c17 -9 101 -50 188 -91 86 -40 157 -78 158 -84 2 -24 -2 -163
-7 -201 -7 -59 -16 -63 -82 -31 -93 45 -300 172 -420 257 l-112 80 0 719 0
719 130 0 c127 0 130 -1 131 -22z m1259 -147 l0 -170 -152 6 c-84 3 -168 7
-186 8 -26 3 -33 -1 -37 -18 -3 -11 -7 -117 -9 -233 -5 -213 -5 -213 17 -217
33 -7 85 -14 147 -21 30 -3 69 -8 85 -10 17 -2 35 -4 41 -4 8 -1 12 -48 13
-145 1 -79 4 -153 6 -164 3 -19 -1 -20 -43 -17 -70 6 -201 22 -244 30 -24 5
-28 2 -29 -17 0 -13 -3 -32 -5 -43 -3 -11 -7 -131 -11 -266 -5 -236 -5 -247
13 -252 11 -3 94 -22 185 -41 185 -39 196 -43 202 -59 8 -25 -7 -260 -19 -292
-8 -19 -35 -19 -109 1 -33 8 -69 17 -80 20 -32 6 -228 64 -250 73 -11 5 -63
25 -115 44 l-95 34 1 74 c1 41 5 220 9 399 4 179 8 390 10 470 12 539 19 822
24 947 1 26 6 27 384 30 l247 3 0 -170z m1750 154 c4 -5 11 -29 14 -54 3 -25
8 -56 10 -70 3 -14 12 -68 20 -120 9 -52 18 -106 21 -120 3 -14 7 -36 9 -50 3
-14 8 -41 10 -60 3 -19 8 -48 11 -65 3 -16 7 -43 10 -60 3 -16 7 -40 9 -51 2
-12 7 -39 10 -60 4 -22 13 -79 22 -129 9 -49 17 -101 19 -115 2 -14 20 -119
40 -235 20 -115 38 -221 40 -235 3 -14 7 -34 9 -45 2 -11 7 -42 10 -68 4 -27
9 -59 12 -70 2 -12 8 -47 14 -77 5 -30 12 -68 15 -85 3 -16 8 -51 12 -78 l5
-47 -56 -25 c-69 -30 -186 -69 -192 -63 -2 3 -15 70 -28 149 -31 181 -34 201
-35 218 -1 13 -47 12 -116 -3 -11 -2 -48 -10 -83 -16 -34 -7 -64 -15 -66 -19
-2 -3 -7 -42 -11 -86 -3 -44 -8 -91 -10 -105 -2 -14 -6 -52 -9 -85 -10 -95
-27 -155 -46 -165 -23 -12 -60 -19 -149 -27 l-74 -6 8 79 c4 43 9 88 10 99 2
11 6 51 10 88 3 37 8 76 10 85 1 9 6 46 10 82 3 36 8 76 10 90 2 14 9 70 15
125 10 94 14 123 26 220 8 67 13 108 19 165 7 65 14 121 20 170 3 19 7 62 11
95 3 33 7 71 9 85 2 14 6 50 10 80 3 30 8 71 10 90 3 19 7 61 11 93 3 32 7 66
9 75 1 9 6 51 10 92 4 41 9 82 10 90 2 8 6 44 9 80 10 104 18 145 28 151 14 9
288 3 298 -7z m727 5 c18 -7 21 -17 23 -101 3 -148 7 -338 14 -708 8 -394 14
-582 20 -588 5 -5 142 67 248 131 101 61 105 61 112 25 3 -17 6 -67 6 -112
l-1 -81 -83 -58 c-223 -155 -503 -314 -521 -295 -11 11 -22 332 -40 1183 -10
467 -11 579 -7 598 4 15 16 17 106 16 56 -1 111 -6 123 -10z"/>
<path d="M4968 6123 c-1 -37 -3 -158 -3 -267 l0 -199 40 -14 c56 -20 117 -24
136 -10 80 60 85 333 8 442 -32 44 -109 100 -151 110 l-26 7 -4 -69z"/>
<path d="M2413 4208 c-31 -41 -36 -138 -36 -708 1 -650 5 -700 60 -721 67 -25
110 22 120 133 9 92 9 1014 0 1128 -9 118 -15 142 -38 163 -25 20 -92 23 -106
5z"/>
<path d="M5332 4209 c-40 -42 -45 -127 -45 -699 -1 -464 4 -634 19 -675 12
-33 46 -65 71 -65 13 0 39 16 61 38 l38 37 -2 455 c-3 905 -2 877 -57 910 -41
25 -61 25 -85 -1z"/>
<path d="M739 3909 c0 -13 -2 -33 -4 -44 -3 -11 -7 -49 -10 -85 -3 -36 -7 -81
-10 -100 -13 -93 -28 -287 -29 -375 l-1 -80 53 2 c60 1 82 15 77 46 -2 12 -6
64 -10 114 -3 51 -8 103 -10 115 -2 13 -6 61 -10 108 -3 47 -8 94 -10 105 -3
11 -7 47 -10 79 -11 111 -24 171 -26 115z"/>
<path d="M1543 4222 c-13 -2 -23 -9 -24 -15 -3 -75 1 -480 5 -484 3 -4 31 -1
61 6 40 9 60 20 72 37 27 43 42 132 39 240 -2 84 -7 110 -27 150 -20 41 -30
50 -64 59 -22 6 -50 9 -62 7z"/>
<path d="M1519 3382 c0 -21 -1 -165 -2 -321 l-2 -283 55 4 c115 8 141 59 146
283 6 264 -28 342 -152 350 l-44 3 -1 -36z"/>
<path d="M3250 3912 l0 -301 43 5 c55 8 102 44 119 91 8 26 13 94 13 208 0
153 -2 175 -22 217 -24 52 -43 66 -108 74 l-45 7 0 -301z"/>
<path d="M4409 1803 c0 -10 -2 -27 -3 -38 -2 -11 -6 -51 -10 -90 -4 -38 -9
-81 -11 -95 -2 -21 -8 -76 -20 -200 -9 -100 -19 -221 -19 -255 l-1 -40 49 3
c73 5 121 23 121 47 1 11 -5 56 -11 100 -7 44 -15 100 -18 125 -3 25 -8 59
-11 75 -3 17 -7 44 -10 60 -3 17 -7 50 -11 75 -3 25 -7 56 -10 70 -2 14 -9 60
-15 103 -11 74 -18 96 -20 60z"/>
</g>
</svg>
