<svg xmlns="http://www.w3.org/2000/svg" xml:space="preserve" viewBox="0 0 121.962 121.89"><path fill="#137752" d="M55.425 121.631c-18.138-1.883-33.764-10.96-44.365-25.771-3.4-4.75-6.885-12.003-8.538-17.77C1.018 72.843 0 65.918 0 60.935c0-3.071.617-8.802 1.31-12.17C5.864 26.624 22.32 8.757 43.95 2.463 47.729 1.364 50.426.84 54.895.339c12.746-1.43 26.51 1.699 37.836 8.6 7.34 4.471 14.1 11.008 19.081 18.45 2.32 3.464 5.649 10.307 6.956 14.295 1.918 5.85 3.194 13.54 3.194 19.251 0 6.979-1.672 15.675-4.263 22.182-6.446 16.184-19.08 28.672-35.21 34.807-8.387 3.189-18.593 4.587-27.064 3.707zm7.643-3.865c1.307-.919 2.134-2.096 2.732-3.891.365-1.097.466-2.66.542-8.432l.094-7.086-3.257.074-3.257.075v5.82l.993.083.992.082v2.987c0 4.228-.434 5.183-2.358 5.183-.584 0-.934-.197-1.274-.718-.432-.661-.467-1.626-.445-12.106.014-6.262.108-11.834.211-12.38.342-1.825 2.264-2.33 3.234-.849.286.436.48 1.479.57 3.049l.136 2.387 2.146-.077 2.145-.076-.043-3.043c-.092-6.368-2.234-9.185-6.807-8.954-2.567.13-3.802.942-4.921 3.237-1.2 2.46-1.372 4.94-1.277 18.285l.084 11.642.771 1.67c.868 1.88 2.324 3.3 3.816 3.721 1.686.476 3.949.177 5.173-.683zm10.565-.85c.529-.195.61-.53.974-4.02l.397-3.806 2.221-.469c1.222-.258 2.264-.427 2.315-.375.052.051.315 1.545.586 3.32.27 1.774.55 3.285.623 3.357.072.072 1.1-.239 2.286-.691 1.899-.726 2.139-.89 2.028-1.395-.186-.846-2.612-14.974-4.188-24.385l-1.373-8.202-2.712-.076c-1.492-.041-2.712-.002-2.712.088 0 .224-2.763 24.009-3.572 30.746-.363 3.02-.66 5.713-.66 5.987-.001.452.144.48 1.604.315.883-.1 1.865-.277 2.183-.394zm2.025-14.222c-.011-.848 1.157-12.784 1.243-12.698.046.046.438 2.574.871 5.62.434 3.044.847 5.855.918 6.245.112.615.027.728-.654.86l-1.577.304c-.647.125-.795.064-.8-.331zm-26.861 11.563c.102-1.451.119-2.747.037-2.88-.083-.134-.598-.321-1.146-.416-.547-.095-2.096-.421-3.442-.724l-2.448-.552.002-2.811c.001-1.547.08-3.808.174-5.025l.173-2.213 1.215.17c.668.093 1.904.244 2.746.333l1.53.164-.075-2.88-.076-2.881-2.557-.267c-1.407-.147-2.616-.327-2.686-.4-.071-.072-.064-1.928.015-4.125l.143-3.992 3.27.126 3.27.126v-5.903l-5.49.071-5.49.072-.054 1.455c-.03.8-.18 7.23-.332 14.287-.153 7.058-.307 13.9-.343 15.205l-.064 2.372 1.969.759c2.227.858 8.06 2.527 8.91 2.55.524.015.575-.162.749-2.621zm-15.521-5.117.076-2.287-3.336-1.584-3.335-1.583.19-11.785.191-11.784h-4.579v25.051l2.14 1.54c2.528 1.82 7.912 4.94 8.303 4.81.152-.05.307-1.106.35-2.378zm59.323.586c1.527-.875 3.7-2.242 4.828-3.04l2.05-1.449v-1.828c0-1.006-.099-1.89-.22-1.965-.12-.075-.627.135-1.124.467-1.004.671-4.864 2.813-5.069 2.813-.072 0-.218-5.448-.325-12.105-.108-6.658-.25-12.194-.316-12.303-.066-.11-1.066-.199-2.221-.199H88.1l-.005 1.786c-.012 3.847.574 28.03.699 28.862.16 1.069.084 1.09 3.804-1.04zM44.456 79.06c1.19-.33 2.435-1.612 3.216-3.308l.609-1.323V47.44l-.688-1.455c-.872-1.842-1.871-2.831-3.231-3.197-2.608-.702-4.92.602-6.058 3.416-.604 1.494-.607 1.562-.607 14.465 0 11.71.046 13.113.474 14.497.99 3.206 3.396 4.696 6.285 3.893zm-1.892-5.49c-1.097-.237-1.162-.945-1.162-12.635 0-12.624.005-12.657 1.705-12.514 1.524.128 1.57.496 1.587 12.589.012 8.519-.059 10.834-.352 11.537-.363.866-.947 1.203-1.778 1.024zm53.986 4.74c2.529-2.044 2.714-3.344 2.6-18.287-.08-10.768-.142-12.208-.57-13.508-1.693-5.139-7.83-5.27-9.596-.204-.447 1.282-.487 2.467-.487 14.624 0 14.552.028 14.83 1.658 16.763 1.501 1.778 4.586 2.074 6.395.612zm-3.492-4.873c-.907-.689-.989-1.712-.987-12.32.002-10.895.116-12.246 1.086-12.765.705-.378 1.737.275 2.017 1.275.111.399.203 5.706.203 11.794v11.07l-.743.638c-.853.734-.982.759-1.576.308zm-82.65 4.63c.076-.4.21-1.561.297-2.58a79.67 79.67 0 0 1 .31-2.976l.152-1.125h1.817c2.068 0 1.94-.168 2.213 2.91.084.946.224 2.345.31 3.11l.159 1.388h1.821c1.811 0 1.822-.004 1.821-.727 0-.4-.599-5.967-1.33-12.37-.73-6.402-1.569-13.844-1.862-16.536-.744-6.823-.378-6.085-3.025-6.085-2.107 0-2.246.035-2.366.595-.196.915-3.853 33.57-3.852 34.396 0 .718.023.727 1.7.727 1.643 0 1.703-.023 1.835-.727zm1.406-12.427c-.158-.257.984-12.173 1.187-12.376.061-.061.381 2.635.71 5.993.33 3.357.542 6.16.474 6.229-.264.264-2.224.391-2.37.154zm19.203 12.297c2.033-1.552 3.03-5.454 2.78-10.884-.143-3.088-.711-5.267-1.757-6.736-.482-.677-.5-.816-.157-1.262.89-1.161 1.449-3.789 1.449-6.824 0-3.423-.471-5.624-1.535-7.171-1.166-1.696-2.026-1.983-5.94-1.984h-3.373v35.768l3.791-.09c3.66-.089 3.825-.117 4.742-.817zm-4.564-9.99V62.39h.674c2.139 0 2.876 1.46 2.874 5.689-.002 4.003-.705 5.424-2.681 5.424h-.867zm0-15.198v-4.382h.915c.594 0 1.1.198 1.44.563 1.032 1.108 1.09 6 .087 7.35-.355.477-.804.711-1.476.768l-.966.082zM56.615 71.65v-7.144h.65c.526 0 .676.162.793.86.08.473.564 3.42 1.077 6.548.512 3.129.99 5.957 1.063 6.284.122.553.274.595 2.11.595 1.414 0 1.977-.094 1.968-.33-.007-.182-.645-3.665-1.417-7.74l-1.405-7.408.613-1.065c1.145-1.986 1.525-4.134 1.522-8.592-.004-4.51-.33-6.275-1.536-8.335-1.103-1.882-2.094-2.248-6.089-2.248h-3.318v35.719h3.969zm0-17.86v-5.16h.679c1.88 0 2.502 1.277 2.481 5.086-.008 1.496-.157 3.134-.33 3.64a2.352 2.352 0 0 1-2.235 1.59l-.595.004zm16.997 9.988.069-15.015 1.786-.078 1.786-.078v-5.542l-5.49.071-5.49.072V48.5l1.785.078 1.786.078v30.138h3.7zm10.456-2.91.068-17.793h-3.973v35.743l1.918-.078L84 78.662zm22.836 7.673c.01-6.278.11-10.048.255-9.724.205.459 4.754 19.453 4.754 19.853 0 .082.744.113 1.654.07l1.653-.079.068-17.805.068-17.806-1.787.079-1.788.078-.133 10.006-.132 10.006-2.095-9.212c-1.152-5.067-2.2-9.6-2.327-10.072-.232-.858-.238-.86-1.94-.86h-1.708v35.719h3.44l.018-10.253zM31.49 35.866c.01-5.47.065-6.254.502-7.073l.49-.922 1.77 5.552c.973 3.053 1.978 6.206 2.232 7.007l.462 1.455 2.69.075c2.224.063 2.69.008 2.69-.313 0-.489-2.515-7.696-5.04-14.44l-1.929-5.153.548-1.462c.302-.804 1.65-4.35 2.997-7.88 1.347-3.53 2.372-6.496 2.279-6.59-.093-.092-1.298.34-2.676.964l-2.507 1.132-2.008 5.986c-2.91 8.675-2.729 8.52-2.754 2.363-.012-2.866-.113-5.266-.224-5.335-.11-.068-1.122.523-2.248 1.315l-2.048 1.44v28.03h4.764zm27.183 3.042L58.6 35.8h-7.673l-.072-5.458-.071-5.458.6-.161c.33-.089 1.256-.164 2.056-.168.8-.004 1.902-.08 2.448-.17l.992-.164v-6.094l-3.01.18c-3.618.216-3.331.639-3.337-4.908L50.53 9.52l.993-.156c1.308-.206 5.626-.68 6.226-.682.43-.002.465-.278.397-3.1l-.075-3.097-1.455.069c-3.058.144-10.664 1.585-11.144 2.11-.09.099-.008 7.62.183 16.716.19 9.095.353 17.459.362 18.587l.016 2.05h12.716zm17.52.233v-2.875l-.992-.164c-.546-.09-2.272-.166-3.836-.167l-2.845-.003.002-4.3c.001-2.364.08-4.938.173-5.718l.17-1.419 1.614.167c.887.092 2.238.238 3.002.325l1.39.158v-6.087l-2.713-.313c-1.491-.172-2.86-.36-3.043-.418-.247-.08-.33-1.24-.33-4.612V9.21l.727.01c.4.005 2.072.279 3.714.608 1.642.329 3.041.543 3.109.475.067-.067.123-1.398.123-2.957V4.511l-2.183-.54c-2.243-.557-6.699-1.268-9.086-1.452l-1.347-.104-.175 9.526c-.096 5.239-.174 14.15-.174 19.8v10.276h12.7zm9.91-3.672c.106-3.602.233-6.59.283-6.64.05-.051.699.038 1.444.198 5.225 1.12 7.419-.865 7.41-6.703-.008-4.503-1.285-7.838-4.064-10.616-1.306-1.304-2.307-1.962-5.145-3.382-1.938-.97-3.694-1.763-3.903-1.763-.282 0-.378.367-.378 1.44 0 1.971-.476 22.94-.66 29.053l-.148 4.961h4.968zm1.212-11.815-.916-.33.08-4.61c.045-2.536.119-4.649.165-4.696.145-.149 1.826.785 2.473 1.373.341.31.79.89.995 1.286.559 1.073.739 3.582.381 5.304-.423 2.039-1.132 2.412-3.178 1.673z"/></svg>